<?xml version="1.0" encoding="utf-8" ?>
<svg baseProfile="full" height="562.5px" preserveAspectRatio="xMidYMid meet" style="font-family: times, serif; font-weight:normal; font-style: normal; font-size: 15px;" version="1.1" viewBox="0,0,3775.499999999994,562.5" width="3775.5px" xmlns="http://www.w3.org/2000/svg" xmlns:ev="http://www.w3.org/2001/xml-events" xmlns:xlink="http://www.w3.org/1999/xlink"><defs /><svg width="100%" x="0" y="0em"><defs /><text text-anchor="middle" x="50%" y="1em">good</text></svg><svg width="100%" x="0%" y="1.5em"><defs /><svg width="100%" x="0" y="0em"><defs /><text text-anchor="middle" x="50%" y="1em">book</text></svg><svg width="100%" x="0%" y="1.5em"><defs /><svg width="100%" x="0" y="0em"><defs /><text text-anchor="middle" x="50%" y="1em">.</text></svg><svg width="92.1335%" x="0%" y="1.5em"><defs /><svg width="100%" x="0" y="0em"><defs /><text text-anchor="middle" x="50%" y="1em">perfect</text></svg><svg width="97.7145%" x="0%" y="1.5em"><defs /><svg width="100%" x="0" y="0em"><defs /><text text-anchor="middle" x="50%" y="1em">story</text></svg><svg width="100%" x="0%" y="1.5em"><defs /><svg width="100%" x="0" y="0em"><defs /><text text-anchor="middle" x="50%" y="1em">.</text></svg><svg width="96.7785%" x="0%" y="1.5em"><defs /><svg width="100%" x="0" y="0em"><defs /><text text-anchor="middle" x="50%" y="1em">it</text></svg><svg width="91.3817%" x="0%" y="1.5em"><defs /><svg width="100%" x="0" y="0em"><defs /><text text-anchor="middle" x="50%" y="1em">is</text></svg><svg width="87.0758%" x="0%" y="1.5em"><defs /><svg width="100%" x="0" y="0em"><defs /><text text-anchor="middle" x="50%" y="1em">discontinued</text></svg><svg width="95.8166%" x="0%" y="1.5em"><defs /><svg width="100%" x="0" y="0em"><defs /><text text-anchor="middle" x="50%" y="1em">)</text></svg><svg width="100%" x="0%" y="1.5em"><defs /><svg width="100%" x="0" y="0em"><defs /><text text-anchor="middle" x="50%" y="1em">.</text></svg><svg width="93.4211%" x="0%" y="1.5em"><defs /><svg width="100%" x="0" y="0em"><defs /><text text-anchor="middle" x="50%" y="1em">the</text></svg><svg width="79.5134%" x="0%" y="1.5em"><defs /><svg width="100%" x="0" y="0em"><defs /><text text-anchor="middle" x="50%" y="1em">plot</text></svg><svg width="79.4686%" x="0%" y="1.5em"><defs /><svg width="100%" x="0" y="0em"><defs /><text text-anchor="middle" x="50%" y="1em">revolves</text></svg><svg width="100%" x="0%" y="1.5em"><defs /><svg width="100%" x="0" y="0em"><defs /><text text-anchor="middle" x="50%" y="1em">around</text></svg><svg width="76.8997%" x="0%" y="1.5em"><defs /><svg width="100%" x="0" y="0em"><defs /><text text-anchor="middle" x="50%" y="1em">an</text></svg><svg width="53.4914%" x="0%" y="1.5em"><defs /><svg width="100%" x="0" y="0em"><defs /><text text-anchor="middle" x="50%" y="1em">explosion</text></svg><svg width="100%" x="0%" y="1.5em"><defs /><svg width="100%" x="0" y="0em"><defs /><text text-anchor="middle" x="50%" y="1em">in</text></svg><svg width="100%" x="0%" y="1.5em"><defs /><svg width="100%" x="0" y="0em"><defs /><text text-anchor="middle" x="50%" y="1em">a</text></svg><svg width="100%" x="0%" y="1.5em"><defs /><svg width="100%" x="0" y="0em"><defs /><text text-anchor="middle" x="50%" y="1em">train</text></svg><svg width="58.1281%" x="0%" y="1.5em"><defs /><svg width="100%" x="0" y="0em"><defs /><text text-anchor="middle" x="50%" y="1em">station</text></svg><svg width="91.1017%" x="0%" y="1.5em"><defs /><svg width="100%" x="0" y="0em"><defs /><text text-anchor="middle" x="50%" y="1em">and</text></svg><svg width="59.0698%" x="0%" y="1.5em"><defs /><svg width="100%" x="0" y="0em"><defs /><text text-anchor="middle" x="50%" y="1em">then</text></svg><svg width="78.7402%" x="0%" y="1.5em"><defs /><svg width="100%" x="0" y="0em"><defs /><text text-anchor="middle" x="50%" y="1em">set</text></svg><svg width="21%" x="0%" y="1.5em"><defs /><svg width="100%" x="0" y="0em"><defs /><text text-anchor="middle" x="50%" y="1em">them</text></svg></svg><line stroke="black" x1="50%" x2="10.5%" y1="1.2em" y2="1.5em" /><svg width="26%" x="21%" y="1.5em"><defs /><svg width="100%" x="0" y="0em"><defs /><text text-anchor="middle" x="50%" y="1em">about</text></svg></svg><line stroke="black" x1="50%" x2="34%" y1="1.2em" y2="1.5em" /><svg width="16%" x="47%" y="1.5em"><defs /><svg width="100%" x="0" y="0em"><defs /><text text-anchor="middle" x="50%" y="1em">the</text></svg></svg><line stroke="black" x1="50%" x2="55%" y1="1.2em" y2="1.5em" /><svg width="26%" x="63%" y="1.5em"><defs /><svg width="100%" x="0" y="0em"><defs /><text text-anchor="middle" x="50%" y="1em">aside</text></svg></svg><line stroke="black" x1="50%" x2="76%" y1="1.2em" y2="1.5em" /><svg width="11%" x="89%" y="1.5em"><defs /><svg width="100%" x="0" y="0em"><defs /><text text-anchor="middle" x="50%" y="1em">it</text></svg></svg><line stroke="black" x1="50%" x2="94.5%" y1="1.2em" y2="1.5em" /></svg><line stroke="black" x1="50%" x2="39.3701%" y1="1.2em" y2="1.5em" /><svg width="8.66142%" x="78.7402%" y="1.5em"><defs /><svg width="100%" x="0" y="0em"><defs /><text text-anchor="middle" x="50%" y="1em">to</text></svg></svg><line stroke="black" x1="50%" x2="83.0709%" y1="1.2em" y2="1.5em" /><svg width="12.5984%" x="87.4016%" y="1.5em"><defs /><svg width="100%" x="0" y="0em"><defs /><text text-anchor="middle" x="50%" y="1em">see</text></svg></svg><line stroke="black" x1="50%" x2="93.7008%" y1="1.2em" y2="1.5em" /></svg><line stroke="black" x1="50%" x2="29.5349%" y1="1.2em" y2="1.5em" /><svg width="16.7442%" x="59.0698%" y="1.5em"><defs /><svg width="100%" x="0" y="0em"><defs /><text text-anchor="middle" x="50%" y="1em">figured</text></svg></svg><line stroke="black" x1="50%" x2="67.4419%" y1="1.2em" y2="1.5em" /><svg width="4.65116%" x="75.814%" y="1.5em"><defs /><svg width="100%" x="0" y="0em"><defs /><text text-anchor="middle" x="50%" y="1em">a</text></svg></svg><line stroke="black" x1="50%" x2="78.1395%" y1="1.2em" y2="1.5em" /><svg width="12.093%" x="80.4651%" y="1.5em"><defs /><svg width="100%" x="0" y="0em"><defs /><text text-anchor="middle" x="50%" y="1em">dumps</text></svg></svg><line stroke="black" x1="50%" x2="86.5116%" y1="1.2em" y2="1.5em" /><svg width="7.44186%" x="92.5581%" y="1.5em"><defs /><svg width="100%" x="0" y="0em"><defs /><text text-anchor="middle" x="50%" y="1em">she</text></svg></svg><line stroke="black" x1="50%" x2="96.2791%" y1="1.2em" y2="1.5em" /></svg><line stroke="black" x1="50%" x2="45.5508%" y1="1.2em" y2="1.5em" /><svg width="4.23729%" x="91.1017%" y="1.5em"><defs /><svg width="100%" x="0" y="0em"><defs /><text text-anchor="middle" x="50%" y="1em">?</text></svg></svg><line stroke="black" x1="50%" x2="93.2203%" y1="1.2em" y2="1.5em" /><svg width="4.66102%" x="95.339%" y="1.5em"><defs /><svg width="100%" x="0" y="0em"><defs /><text text-anchor="middle" x="50%" y="1em">in</text></svg></svg><line stroke="black" x1="50%" x2="97.6695%" y1="1.2em" y2="1.5em" /></svg><line stroke="black" x1="50%" x2="29.064%" y1="1.2em" y2="1.5em" /><svg width="11.33%" x="58.1281%" y="1.5em"><defs /><svg width="100%" x="0" y="0em"><defs /><text text-anchor="middle" x="50%" y="1em">wreck.but</text></svg></svg><line stroke="black" x1="50%" x2="63.7931%" y1="1.2em" y2="1.5em" /><svg width="3.94089%" x="69.4581%" y="1.5em"><defs /><svg width="100%" x="0" y="0em"><defs /><text text-anchor="middle" x="50%" y="1em">car</text></svg></svg><line stroke="black" x1="50%" x2="71.4286%" y1="1.2em" y2="1.5em" /><svg width="2.70936%" x="73.399%" y="1.5em"><defs /><svg width="100%" x="0" y="0em"><defs /><text text-anchor="middle" x="50%" y="1em">'s</text></svg></svg><line stroke="black" x1="50%" x2="74.7537%" y1="1.2em" y2="1.5em" /><svg width="10.0985%" x="76.1084%" y="1.5em"><defs /><svg width="100%" x="0" y="0em"><defs /><text text-anchor="middle" x="50%" y="1em">accident</text></svg></svg><line stroke="black" x1="50%" x2="81.1576%" y1="1.2em" y2="1.5em" /><svg width="13.7931%" x="86.2069%" y="1.5em"><defs /><svg width="100%" x="0" y="0em"><defs /><text text-anchor="middle" x="50%" y="1em">compartment</text></svg></svg><line stroke="black" x1="50%" x2="93.1034%" y1="1.2em" y2="1.5em" /></svg><line stroke="black" x1="50%" x2="50%" y1="1.2em" y2="1.5em" /></svg><line stroke="black" x1="50%" x2="50%" y1="1.2em" y2="1.5em" /></svg><line stroke="black" x1="50%" x2="50%" y1="1.2em" y2="1.5em" /></svg><line stroke="black" x1="50%" x2="26.7457%" y1="1.2em" y2="1.5em" /><svg width="4.08432%" x="53.4914%" y="1.5em"><defs /><svg width="100%" x="0" y="0em"><defs /><text text-anchor="middle" x="50%" y="1em">actual</text></svg></svg><line stroke="black" x1="50%" x2="55.5336%" y1="1.2em" y2="1.5em" /><svg width="4.74308%" x="57.5758%" y="1.5em"><defs /><svg width="100%" x="0" y="0em"><defs /><text text-anchor="middle" x="50%" y="1em">antique</text></svg></svg><line stroke="black" x1="50%" x2="59.9473%" y1="1.2em" y2="1.5em" /><svg width="6.06061%" x="62.3188%" y="1.5em"><defs /><svg width="100%" x="0" y="0em"><defs /><text text-anchor="middle" x="50%" y="1em">adventure</text></svg></svg><line stroke="black" x1="50%" x2="65.3491%" y1="1.2em" y2="1.5em" /><svg width="7.37813%" x="68.3794%" y="1.5em"><defs /><svg width="100%" x="0" y="0em"><defs /><text text-anchor="middle" x="50%" y="1em">independent</text></svg></svg><line stroke="black" x1="50%" x2="72.0685%" y1="1.2em" y2="1.5em" /><svg width="6.71937%" x="75.7576%" y="1.5em"><defs /><svg width="100%" x="0" y="0em"><defs /><text text-anchor="middle" x="50%" y="1em">ex-medical</text></svg></svg><line stroke="black" x1="50%" x2="79.1173%" y1="1.2em" y2="1.5em" /><svg width="5.40184%" x="82.4769%" y="1.5em"><defs /><svg width="100%" x="0" y="0em"><defs /><text text-anchor="middle" x="50%" y="1em">implicit</text></svg></svg><line stroke="black" x1="50%" x2="85.1779%" y1="1.2em" y2="1.5em" /><svg width="7.37813%" x="87.8788%" y="1.5em"><defs /><svg width="100%" x="0" y="0em"><defs /><text text-anchor="middle" x="50%" y="1em">intelligent</text></svg></svg><line stroke="black" x1="50%" x2="91.5679%" y1="1.2em" y2="1.5em" /><svg width="4.74308%" x="95.2569%" y="1.5em"><defs /><svg width="100%" x="0" y="0em"><defs /><text text-anchor="middle" x="50%" y="1em">accused</text></svg></svg><line stroke="black" x1="50%" x2="97.6285%" y1="1.2em" y2="1.5em" /></svg><line stroke="black" x1="50%" x2="38.4498%" y1="1.2em" y2="1.5em" /><svg width="1.62107%" x="76.8997%" y="1.5em"><defs /><svg width="100%" x="0" y="0em"><defs /><text text-anchor="middle" x="50%" y="1em">the</text></svg></svg><line stroke="black" x1="50%" x2="77.7102%" y1="1.2em" y2="1.5em" /><svg width="3.14083%" x="78.5208%" y="1.5em"><defs /><svg width="100%" x="0" y="0em"><defs /><text text-anchor="middle" x="50%" y="1em">stupid</text></svg></svg><line stroke="black" x1="50%" x2="80.0912%" y1="1.2em" y2="1.5em" /><svg width="3.14083%" x="81.6616%" y="1.5em"><defs /><svg width="100%" x="0" y="0em"><defs /><text text-anchor="middle" x="50%" y="1em">crosby</text></svg></svg><line stroke="black" x1="50%" x2="83.232%" y1="1.2em" y2="1.5em" /><svg width="3.14083%" x="84.8024%" y="1.5em"><defs /><svg width="100%" x="0" y="0em"><defs /><text text-anchor="middle" x="50%" y="1em">kinsey</text></svg></svg><line stroke="black" x1="50%" x2="86.3728%" y1="1.2em" y2="1.5em" /><svg width="2.12766%" x="87.9433%" y="1.5em"><defs /><svg width="100%" x="0" y="0em"><defs /><text text-anchor="middle" x="50%" y="1em">four</text></svg></svg><line stroke="black" x1="50%" x2="89.0071%" y1="1.2em" y2="1.5em" /><svg width="2.63425%" x="90.0709%" y="1.5em"><defs /><svg width="100%" x="0" y="0em"><defs /><text text-anchor="middle" x="50%" y="1em">surly</text></svg></svg><line stroke="black" x1="50%" x2="91.388%" y1="1.2em" y2="1.5em" /><svg width="1.01317%" x="92.7052%" y="1.5em"><defs /><svg width="100%" x="0" y="0em"><defs /><text text-anchor="middle" x="50%" y="1em">a</text></svg></svg><line stroke="black" x1="50%" x2="93.2118%" y1="1.2em" y2="1.5em" /><svg width="2.12766%" x="93.7183%" y="1.5em"><defs /><svg width="100%" x="0" y="0em"><defs /><text text-anchor="middle" x="50%" y="1em">some</text></svg></svg><line stroke="black" x1="50%" x2="94.7822%" y1="1.2em" y2="1.5em" /><svg width="4.154%" x="95.846%" y="1.5em"><defs /><svg width="100%" x="0" y="0em"><defs /><text text-anchor="middle" x="50%" y="1em">jennifer</text></svg></svg><line stroke="black" x1="50%" x2="97.923%" y1="1.2em" y2="1.5em" /></svg><line stroke="black" x1="50%" x2="50%" y1="1.2em" y2="1.5em" /></svg><line stroke="black" x1="50%" x2="39.7343%" y1="1.2em" y2="1.5em" /><svg width="2.49597%" x="79.4686%" y="1.5em"><defs /><svg width="100%" x="0" y="0em"><defs /><text text-anchor="middle" x="50%" y="1em">barely</text></svg></svg><line stroke="black" x1="50%" x2="80.7166%" y1="1.2em" y2="1.5em" /><svg width="3.30113%" x="81.9646%" y="1.5em"><defs /><svg width="100%" x="0" y="0em"><defs /><text text-anchor="middle" x="50%" y="1em">dribbles</text></svg></svg><line stroke="black" x1="50%" x2="83.6151%" y1="1.2em" y2="1.5em" /><svg width="2.0934%" x="85.2657%" y="1.5em"><defs /><svg width="100%" x="0" y="0em"><defs /><text text-anchor="middle" x="50%" y="1em">never</text></svg></svg><line stroke="black" x1="50%" x2="86.3124%" y1="1.2em" y2="1.5em" /><svg width="0.885668%" x="87.3591%" y="1.5em"><defs /><svg width="100%" x="0" y="0em"><defs /><text text-anchor="middle" x="50%" y="1em">of</text></svg></svg><line stroke="black" x1="50%" x2="87.8019%" y1="1.2em" y2="1.5em" /><svg width="2.0934%" x="88.2448%" y="1.5em"><defs /><svg width="100%" x="0" y="0em"><defs /><text text-anchor="middle" x="50%" y="1em">loses</text></svg></svg><line stroke="black" x1="50%" x2="89.2915%" y1="1.2em" y2="1.5em" /><svg width="0.885668%" x="90.3382%" y="1.5em"><defs /><svg width="100%" x="0" y="0em"><defs /><text text-anchor="middle" x="50%" y="1em">is</text></svg></svg><line stroke="black" x1="50%" x2="90.781%" y1="1.2em" y2="1.5em" /><svg width="1.69082%" x="91.2238%" y="1.5em"><defs /><svg width="100%" x="0" y="0em"><defs /><text text-anchor="middle" x="50%" y="1em">line</text></svg></svg><line stroke="black" x1="50%" x2="92.0692%" y1="1.2em" y2="1.5em" /><svg width="4.50886%" x="92.9147%" y="1.5em"><defs /><svg width="100%" x="0" y="0em"><defs /><text text-anchor="middle" x="50%" y="1em">predictable</text></svg></svg><line stroke="black" x1="50%" x2="95.1691%" y1="1.2em" y2="1.5em" /><svg width="1.28824%" x="97.4235%" y="1.5em"><defs /><svg width="100%" x="0" y="0em"><defs /><text text-anchor="middle" x="50%" y="1em">was</text></svg></svg><line stroke="black" x1="50%" x2="98.0676%" y1="1.2em" y2="1.5em" /><svg width="1.28824%" x="98.7118%" y="1.5em"><defs /><svg width="100%" x="0" y="0em"><defs /><text text-anchor="middle" x="50%" y="1em">had</text></svg></svg><line stroke="black" x1="50%" x2="99.3559%" y1="1.2em" y2="1.5em" /></svg><line stroke="black" x1="50%" x2="39.7567%" y1="1.2em" y2="1.5em" /><svg width="1.66453%" x="79.5134%" y="1.5em"><defs /><svg width="100%" x="0" y="0em"><defs /><text text-anchor="middle" x="50%" y="1em">other</text></svg></svg><line stroke="black" x1="50%" x2="80.3457%" y1="1.2em" y2="1.5em" /><svg width="1.34443%" x="81.178%" y="1.5em"><defs /><svg width="100%" x="0" y="0em"><defs /><text text-anchor="middle" x="50%" y="1em">only</text></svg></svg><line stroke="black" x1="50%" x2="81.8502%" y1="1.2em" y2="1.5em" /><svg width="1.98464%" x="82.5224%" y="1.5em"><defs /><svg width="100%" x="0" y="0em"><defs /><text text-anchor="middle" x="50%" y="1em">actors</text></svg></svg><line stroke="black" x1="50%" x2="83.5147%" y1="1.2em" y2="1.5em" /><svg width="2.62484%" x="84.507%" y="1.5em"><defs /><svg width="100%" x="0" y="0em"><defs /><text text-anchor="middle" x="50%" y="1em">shipping</text></svg></svg><line stroke="black" x1="50%" x2="85.8195%" y1="1.2em" y2="1.5em" /><svg width="3.58515%" x="87.1319%" y="1.5em"><defs /><svg width="100%" x="0" y="0em"><defs /><text text-anchor="middle" x="50%" y="1em">environment</text></svg></svg><line stroke="black" x1="50%" x2="88.9245%" y1="1.2em" y2="1.5em" /><svg width="2.62484%" x="90.717%" y="1.5em"><defs /><svg width="100%" x="0" y="0em"><defs /><text text-anchor="middle" x="50%" y="1em">previous</text></svg></svg><line stroke="black" x1="50%" x2="92.0294%" y1="1.2em" y2="1.5em" /><svg width="1.98464%" x="93.3419%" y="1.5em"><defs /><svg width="100%" x="0" y="0em"><defs /><text text-anchor="middle" x="50%" y="1em">second</text></svg></svg><line stroke="black" x1="50%" x2="94.3342%" y1="1.2em" y2="1.5em" /><svg width="1.34443%" x="95.3265%" y="1.5em"><defs /><svg width="100%" x="0" y="0em"><defs /><text text-anchor="middle" x="50%" y="1em">size</text></svg></svg><line stroke="black" x1="50%" x2="95.9987%" y1="1.2em" y2="1.5em" /><svg width="1.98464%" x="96.6709%" y="1.5em"><defs /><svg width="100%" x="0" y="0em"><defs /><text text-anchor="middle" x="50%" y="1em">medium</text></svg></svg><line stroke="black" x1="50%" x2="97.6633%" y1="1.2em" y2="1.5em" /><svg width="1.34443%" x="98.6556%" y="1.5em"><defs /><svg width="100%" x="0" y="0em"><defs /><text text-anchor="middle" x="50%" y="1em">show</text></svg></svg><line stroke="black" x1="50%" x2="99.3278%" y1="1.2em" y2="1.5em" /></svg><line stroke="black" x1="50%" x2="46.7105%" y1="1.2em" y2="1.5em" /><svg width="1.85407%" x="93.4211%" y="1.5em"><defs /><svg width="100%" x="0" y="0em"><defs /><text text-anchor="middle" x="50%" y="1em">anyhow</text></svg></svg><line stroke="black" x1="50%" x2="94.3481%" y1="1.2em" y2="1.5em" /><svg width="1.55502%" x="95.2751%" y="1.5em"><defs /><svg width="100%" x="0" y="0em"><defs /><text text-anchor="middle" x="50%" y="1em">being</text></svg></svg><line stroke="black" x1="50%" x2="96.0526%" y1="1.2em" y2="1.5em" /><svg width="0.657895%" x="96.8301%" y="1.5em"><defs /><svg width="100%" x="0" y="0em"><defs /><text text-anchor="middle" x="50%" y="1em">it</text></svg></svg><line stroke="black" x1="50%" x2="97.1591%" y1="1.2em" y2="1.5em" /><svg width="0.598086%" x="97.488%" y="1.5em"><defs /><svg width="100%" x="0" y="0em"><defs /><text text-anchor="middle" x="50%" y="1em">i</text></svg></svg><line stroke="black" x1="50%" x2="97.7871%" y1="1.2em" y2="1.5em" /><svg width="1.25598%" x="98.0861%" y="1.5em"><defs /><svg width="100%" x="0" y="0em"><defs /><text text-anchor="middle" x="50%" y="1em">they</text></svg></svg><line stroke="black" x1="50%" x2="98.7141%" y1="1.2em" y2="1.5em" /><svg width="0.657895%" x="99.3421%" y="1.5em"><defs /><svg width="100%" x="0" y="0em"><defs /><text text-anchor="middle" x="50%" y="1em">as</text></svg></svg><line stroke="black" x1="50%" x2="99.6711%" y1="1.2em" y2="1.5em" /></svg><line stroke="black" x1="50%" x2="50%" y1="1.2em" y2="1.5em" /></svg><line stroke="black" x1="50%" x2="47.9083%" y1="1.2em" y2="1.5em" /><svg width="0.573066%" x="95.8166%" y="1.5em"><defs /><svg width="100%" x="0" y="0em"><defs /><text text-anchor="middle" x="50%" y="1em">:</text></svg></svg><line stroke="black" x1="50%" x2="96.1032%" y1="1.2em" y2="1.5em" /><svg width="0.916905%" x="96.3897%" y="1.5em"><defs /><svg width="100%" x="0" y="0em"><defs /><text text-anchor="middle" x="50%" y="1em">...</text></svg></svg><line stroke="black" x1="50%" x2="96.8481%" y1="1.2em" y2="1.5em" /><svg width="1.20344%" x="97.3066%" y="1.5em"><defs /><svg width="100%" x="0" y="0em"><defs /><text text-anchor="middle" x="50%" y="1em">from</text></svg></svg><line stroke="black" x1="50%" x2="97.9083%" y1="1.2em" y2="1.5em" /><svg width="0.916905%" x="98.51%" y="1.5em"><defs /><svg width="100%" x="0" y="0em"><defs /><text text-anchor="middle" x="50%" y="1em">and</text></svg></svg><line stroke="black" x1="50%" x2="98.9685%" y1="1.2em" y2="1.5em" /><svg width="0.573066%" x="99.4269%" y="1.5em"><defs /><svg width="100%" x="0" y="0em"><defs /><text text-anchor="middle" x="50%" y="1em">,</text></svg></svg><line stroke="black" x1="50%" x2="99.7135%" y1="1.2em" y2="1.5em" /></svg><line stroke="black" x1="50%" x2="43.5379%" y1="1.2em" y2="1.5em" /><svg width="2.79441%" x="87.0758%" y="1.5em"><defs /><svg width="100%" x="0" y="0em"><defs /><text text-anchor="middle" x="50%" y="1em">essentially</text></svg></svg><line stroke="black" x1="50%" x2="88.4731%" y1="1.2em" y2="1.5em" /><svg width="0.798403%" x="89.8703%" y="1.5em"><defs /><svg width="100%" x="0" y="0em"><defs /><text text-anchor="middle" x="50%" y="1em">not</text></svg></svg><line stroke="black" x1="50%" x2="90.2695%" y1="1.2em" y2="1.5em" /><svg width="0.548902%" x="90.6687%" y="1.5em"><defs /><svg width="100%" x="0" y="0em"><defs /><text text-anchor="middle" x="50%" y="1em">an</text></svg></svg><line stroke="black" x1="50%" x2="90.9431%" y1="1.2em" y2="1.5em" /><svg width="1.0479%" x="91.2176%" y="1.5em"><defs /><svg width="100%" x="0" y="0em"><defs /><text text-anchor="middle" x="50%" y="1em">very</text></svg></svg><line stroke="black" x1="50%" x2="91.7415%" y1="1.2em" y2="1.5em" /><svg width="1.0479%" x="92.2655%" y="1.5em"><defs /><svg width="100%" x="0" y="0em"><defs /><text text-anchor="middle" x="50%" y="1em">most</text></svg></svg><line stroke="black" x1="50%" x2="92.7894%" y1="1.2em" y2="1.5em" /><svg width="1.0479%" x="93.3134%" y="1.5em"><defs /><svg width="100%" x="0" y="0em"><defs /><text text-anchor="middle" x="50%" y="1em">hard</text></svg></svg><line stroke="black" x1="50%" x2="93.8373%" y1="1.2em" y2="1.5em" /><svg width="0.499002%" x="94.3613%" y="1.5em"><defs /><svg width="100%" x="0" y="0em"><defs /><text text-anchor="middle" x="50%" y="1em">a</text></svg></svg><line stroke="black" x1="50%" x2="94.6108%" y1="1.2em" y2="1.5em" /><svg width="1.0479%" x="94.8603%" y="1.5em"><defs /><svg width="100%" x="0" y="0em"><defs /><text text-anchor="middle" x="50%" y="1em">slow</text></svg></svg><line stroke="black" x1="50%" x2="95.3842%" y1="1.2em" y2="1.5em" /><svg width="1.79641%" x="95.9082%" y="1.5em"><defs /><svg width="100%" x="0" y="0em"><defs /><text text-anchor="middle" x="50%" y="1em">between</text></svg></svg><line stroke="black" x1="50%" x2="96.8064%" y1="1.2em" y2="1.5em" /><svg width="2.29541%" x="97.7046%" y="1.5em"><defs /><svg width="100%" x="0" y="0em"><defs /><text text-anchor="middle" x="50%" y="1em">something</text></svg></svg><line stroke="black" x1="50%" x2="98.8523%" y1="1.2em" y2="1.5em" /></svg><line stroke="black" x1="50%" x2="45.6908%" y1="1.2em" y2="1.5em" /><svg width="1.41359%" x="91.3817%" y="1.5em"><defs /><svg width="100%" x="0" y="0em"><defs /><text text-anchor="middle" x="50%" y="1em">worked</text></svg></svg><line stroke="black" x1="50%" x2="92.0885%" y1="1.2em" y2="1.5em" /><svg width="0.501596%" x="92.7953%" y="1.5em"><defs /><svg width="100%" x="0" y="0em"><defs /><text text-anchor="middle" x="50%" y="1em">'s</text></svg></svg><line stroke="black" x1="50%" x2="93.0461%" y1="1.2em" y2="1.5em" /><svg width="0.729594%" x="93.2969%" y="1.5em"><defs /><svg width="100%" x="0" y="0em"><defs /><text text-anchor="middle" x="50%" y="1em">has</text></svg></svg><line stroke="black" x1="50%" x2="93.6617%" y1="1.2em" y2="1.5em" /><svg width="1.41359%" x="94.0264%" y="1.5em"><defs /><svg width="100%" x="0" y="0em"><defs /><text text-anchor="middle" x="50%" y="1em">opened</text></svg></svg><line stroke="black" x1="50%" x2="94.7332%" y1="1.2em" y2="1.5em" /><svg width="0.957592%" x="95.44%" y="1.5em"><defs /><svg width="100%" x="0" y="0em"><defs /><text text-anchor="middle" x="50%" y="1em">gets</text></svg></svg><line stroke="black" x1="50%" x2="95.9188%" y1="1.2em" y2="1.5em" /><svg width="0.957592%" x="96.3976%" y="1.5em"><defs /><svg width="100%" x="0" y="0em"><defs /><text text-anchor="middle" x="50%" y="1em">also</text></svg></svg><line stroke="black" x1="50%" x2="96.8764%" y1="1.2em" y2="1.5em" /><svg width="0.957592%" x="97.3552%" y="1.5em"><defs /><svg width="100%" x="0" y="0em"><defs /><text text-anchor="middle" x="50%" y="1em">made</text></svg></svg><line stroke="black" x1="50%" x2="97.834%" y1="1.2em" y2="1.5em" /><svg width="0.729594%" x="98.3128%" y="1.5em"><defs /><svg width="100%" x="0" y="0em"><defs /><text text-anchor="middle" x="50%" y="1em">was</text></svg></svg><line stroke="black" x1="50%" x2="98.6776%" y1="1.2em" y2="1.5em" /><svg width="0.957592%" x="99.0424%" y="1.5em"><defs /><svg width="100%" x="0" y="0em"><defs /><text text-anchor="middle" x="50%" y="1em">just</text></svg></svg><line stroke="black" x1="50%" x2="99.5212%" y1="1.2em" y2="1.5em" /></svg><line stroke="black" x1="50%" x2="48.3892%" y1="1.2em" y2="1.5em" /><svg width="1.1474%" x="96.7785%" y="1.5em"><defs /><svg width="100%" x="0" y="0em"><defs /><text text-anchor="middle" x="50%" y="1em">there</text></svg></svg><line stroke="black" x1="50%" x2="97.3522%" y1="1.2em" y2="1.5em" /><svg width="1.1474%" x="97.9259%" y="1.5em"><defs /><svg width="100%" x="0" y="0em"><defs /><text text-anchor="middle" x="50%" y="1em">heart</text></svg></svg><line stroke="black" x1="50%" x2="98.4996%" y1="1.2em" y2="1.5em" /><svg width="0.926743%" x="99.0733%" y="1.5em"><defs /><svg width="100%" x="0" y="0em"><defs /><text text-anchor="middle" x="50%" y="1em">&lt;/s&gt;</text></svg></svg><line stroke="black" x1="50%" x2="99.5366%" y1="1.2em" y2="1.5em" /></svg><line stroke="black" x1="50%" x2="50%" y1="1.2em" y2="1.5em" /></svg><line stroke="black" x1="50%" x2="48.8573%" y1="1.2em" y2="1.5em" /><svg width="1.12117%" x="97.7145%" y="1.5em"><defs /><svg width="100%" x="0" y="0em"><defs /><text text-anchor="middle" x="50%" y="1em">after</text></svg></svg><line stroke="black" x1="50%" x2="98.2751%" y1="1.2em" y2="1.5em" /><svg width="0.689953%" x="98.8357%" y="1.5em"><defs /><svg width="100%" x="0" y="0em"><defs /><text text-anchor="middle" x="50%" y="1em">for</text></svg></svg><line stroke="black" x1="50%" x2="99.1807%" y1="1.2em" y2="1.5em" /><svg width="0.474342%" x="99.5257%" y="1.5em"><defs /><svg width="100%" x="0" y="0em"><defs /><text text-anchor="middle" x="50%" y="1em">as</text></svg></svg><line stroke="black" x1="50%" x2="99.7628%" y1="1.2em" y2="1.5em" /></svg><line stroke="black" x1="50%" x2="46.0667%" y1="1.2em" y2="1.5em" /><svg width="0.635677%" x="92.1335%" y="1.5em"><defs /><svg width="100%" x="0" y="0em"><defs /><text text-anchor="middle" x="50%" y="1em">the</text></svg></svg><line stroke="black" x1="50%" x2="92.4513%" y1="1.2em" y2="1.5em" /><svg width="0.397298%" x="92.7692%" y="1.5em"><defs /><svg width="100%" x="0" y="0em"><defs /><text text-anchor="middle" x="50%" y="1em">:</text></svg></svg><line stroke="black" x1="50%" x2="92.9678%" y1="1.2em" y2="1.5em" /><svg width="0.437028%" x="93.1665%" y="1.5em"><defs /><svg width="100%" x="0" y="0em"><defs /><text text-anchor="middle" x="50%" y="1em">it</text></svg></svg><line stroke="black" x1="50%" x2="93.385%" y1="1.2em" y2="1.5em" /><svg width="1.43027%" x="93.6035%" y="1.5em"><defs /><svg width="100%" x="0" y="0em"><defs /><text text-anchor="middle" x="50%" y="1em">several</text></svg></svg><line stroke="black" x1="50%" x2="94.3186%" y1="1.2em" y2="1.5em" /><svg width="0.834327%" x="95.0338%" y="1.5em"><defs /><svg width="100%" x="0" y="0em"><defs /><text text-anchor="middle" x="50%" y="1em">well</text></svg></svg><line stroke="black" x1="50%" x2="95.4509%" y1="1.2em" y2="1.5em" /><svg width="0.834327%" x="95.8681%" y="1.5em"><defs /><svg width="100%" x="0" y="0em"><defs /><text text-anchor="middle" x="50%" y="1em">*you</text></svg></svg><line stroke="black" x1="50%" x2="96.2853%" y1="1.2em" y2="1.5em" /><svg width="0.397298%" x="96.7024%" y="1.5em"><defs /><svg width="100%" x="0" y="0em"><defs /><text text-anchor="middle" x="50%" y="1em">i</text></svg></svg><line stroke="black" x1="50%" x2="96.9011%" y1="1.2em" y2="1.5em" /><svg width="0.437028%" x="97.0997%" y="1.5em"><defs /><svg width="100%" x="0" y="0em"><defs /><text text-anchor="middle" x="50%" y="1em">my</text></svg></svg><line stroke="black" x1="50%" x2="97.3182%" y1="1.2em" y2="1.5em" /><svg width="1.62892%" x="97.5368%" y="1.5em"><defs /><svg width="100%" x="0" y="0em"><defs /><text text-anchor="middle" x="50%" y="1em">bradbury</text></svg></svg><line stroke="black" x1="50%" x2="98.3512%" y1="1.2em" y2="1.5em" /><svg width="0.834327%" x="99.1657%" y="1.5em"><defs /><svg width="100%" x="0" y="0em"><defs /><text text-anchor="middle" x="50%" y="1em">&lt;/s&gt;</text></svg></svg><line stroke="black" x1="50%" x2="99.5828%" y1="1.2em" y2="1.5em" /></svg><line stroke="black" x1="50%" x2="50%" y1="1.2em" y2="1.5em" /></svg><line stroke="black" x1="50%" x2="50%" y1="1.2em" y2="1.5em" /></svg>