<?xml version="1.0" encoding="utf-8" ?>
<svg baseProfile="full" height="562.5px" preserveAspectRatio="xMidYMid meet" style="font-family: times, serif; font-weight:normal; font-style: normal; font-size: 15px;" version="1.1" viewBox="0,0,4798.500000000004,562.5" width="4798.5px" xmlns="http://www.w3.org/2000/svg" xmlns:ev="http://www.w3.org/2001/xml-events" xmlns:xlink="http://www.w3.org/1999/xlink"><defs /><svg width="100%" x="0" y="0em"><defs /><text text-anchor="middle" x="50%" y="1em">good</text></svg><svg width="100%" x="0%" y="1.5em"><defs /><svg width="100%" x="0" y="0em"><defs /><text text-anchor="middle" x="50%" y="1em">book</text></svg><svg width="100%" x="0%" y="1.5em"><defs /><svg width="100%" x="0" y="0em"><defs /><text text-anchor="middle" x="50%" y="1em">.</text></svg><svg width="93.8106%" x="0%" y="1.5em"><defs /><svg width="100%" x="0" y="0em"><defs /><text text-anchor="middle" x="50%" y="1em">perfect</text></svg><svg width="98.2339%" x="0%" y="1.5em"><defs /><svg width="100%" x="0" y="0em"><defs /><text text-anchor="middle" x="50%" y="1em">story</text></svg><svg width="100%" x="0%" y="1.5em"><defs /><svg width="100%" x="0" y="0em"><defs /><text text-anchor="middle" x="50%" y="1em">.</text></svg><svg width="97.5237%" x="0%" y="1.5em"><defs /><svg width="100%" x="0" y="0em"><defs /><text text-anchor="middle" x="50%" y="1em">it</text></svg><svg width="93.4261%" x="0%" y="1.5em"><defs /><svg width="100%" x="0" y="0em"><defs /><text text-anchor="middle" x="50%" y="1em">'s</text></svg><svg width="90.9159%" x="0%" y="1.5em"><defs /><svg width="100%" x="0" y="0em"><defs /><text text-anchor="middle" x="50%" y="1em">got</text></svg><svg width="91.2367%" x="0%" y="1.5em"><defs /><svg width="100%" x="0" y="0em"><defs /><text text-anchor="middle" x="50%" y="1em">one</text></svg><svg width="96.2298%" x="0%" y="1.5em"><defs /><svg width="100%" x="0" y="0em"><defs /><text text-anchor="middle" x="50%" y="1em">play</text></svg><svg width="100%" x="0%" y="1.5em"><defs /><svg width="100%" x="0" y="0em"><defs /><text text-anchor="middle" x="50%" y="1em">and</text></svg><svg width="99.0205%" x="0%" y="1.5em"><defs /><svg width="100%" x="0" y="0em"><defs /><text text-anchor="middle" x="50%" y="1em">into</text></svg><svg width="100%" x="0%" y="1.5em"><defs /><svg width="100%" x="0" y="0em"><defs /><text text-anchor="middle" x="50%" y="1em">the</text></svg><svg width="83.7494%" x="0%" y="1.5em"><defs /><svg width="100%" x="0" y="0em"><defs /><text text-anchor="middle" x="50%" y="1em">reservoir</text></svg><svg width="92.9696%" x="0%" y="1.5em"><defs /><svg width="100%" x="0" y="0em"><defs /><text text-anchor="middle" x="50%" y="1em">.</text></svg><svg width="87.4168%" x="0%" y="1.5em"><defs /><svg width="100%" x="0" y="0em"><defs /><text text-anchor="middle" x="50%" y="1em">what</text></svg><svg width="100%" x="0%" y="1.5em"><defs /><svg width="100%" x="0" y="0em"><defs /><text text-anchor="middle" x="50%" y="1em">a</text></svg><svg width="77.9239%" x="0%" y="1.5em"><defs /><svg width="100%" x="0" y="0em"><defs /><text text-anchor="middle" x="50%" y="1em">waste</text></svg><svg width="89.4316%" x="0%" y="1.5em"><defs /><svg width="100%" x="0" y="0em"><defs /><text text-anchor="middle" x="50%" y="1em">of</text></svg><svg width="82.8203%" x="0%" y="1.5em"><defs /><svg width="100%" x="0" y="0em"><defs /><text text-anchor="middle" x="50%" y="1em">money</text></svg><svg width="84.8921%" x="0%" y="1.5em"><defs /><svg width="100%" x="0" y="0em"><defs /><text text-anchor="middle" x="50%" y="1em">:</text></svg><svg width="71.1864%" x="0%" y="1.5em"><defs /><svg width="100%" x="0" y="0em"><defs /><text text-anchor="middle" x="50%" y="1em">i</text></svg><svg width="41.4683%" x="0%" y="1.5em"><defs /><svg width="100%" x="0" y="0em"><defs /><text text-anchor="middle" x="50%" y="1em">think</text></svg><svg width="10.0478%" x="0%" y="1.5em"><defs /><svg width="100%" x="0" y="0em"><defs /><text text-anchor="middle" x="50%" y="1em">that</text></svg></svg><line stroke="black" x1="50%" x2="5.02392%" y1="1.2em" y2="1.5em" /><svg width="14.8325%" x="10.0478%" y="1.5em"><defs /><svg width="100%" x="0" y="0em"><defs /><text text-anchor="middle" x="50%" y="1em">beyond</text></svg></svg><line stroke="black" x1="50%" x2="17.4641%" y1="1.2em" y2="1.5em" /><svg width="7.6555%" x="24.8804%" y="1.5em"><defs /><svg width="100%" x="0" y="0em"><defs /><text text-anchor="middle" x="50%" y="1em">the</text></svg></svg><line stroke="black" x1="50%" x2="28.7081%" y1="1.2em" y2="1.5em" /><svg width="10.0478%" x="32.5359%" y="1.5em"><defs /><svg width="100%" x="0" y="0em"><defs /><text text-anchor="middle" x="50%" y="1em">this</text></svg></svg><line stroke="black" x1="50%" x2="37.5598%" y1="1.2em" y2="1.5em" /><svg width="7.6555%" x="42.5837%" y="1.5em"><defs /><svg width="100%" x="0" y="0em"><defs /><text text-anchor="middle" x="50%" y="1em">afx</text></svg></svg><line stroke="black" x1="50%" x2="46.4115%" y1="1.2em" y2="1.5em" /><svg width="5.26316%" x="50.2392%" y="1.5em"><defs /><svg width="100%" x="0" y="0em"><defs /><text text-anchor="middle" x="50%" y="1em">it</text></svg></svg><line stroke="black" x1="50%" x2="52.8708%" y1="1.2em" y2="1.5em" /><svg width="4.78469%" x="55.5024%" y="1.5em"><defs /><svg width="100%" x="0" y="0em"><defs /><text text-anchor="middle" x="50%" y="1em">a</text></svg></svg><line stroke="black" x1="50%" x2="57.8947%" y1="1.2em" y2="1.5em" /><svg width="14.8325%" x="60.2871%" y="1.5em"><defs /><svg width="100%" x="0" y="0em"><defs /><text text-anchor="middle" x="50%" y="1em">people</text></svg></svg><line stroke="black" x1="50%" x2="67.7033%" y1="1.2em" y2="1.5em" /><svg width="17.2249%" x="75.1196%" y="1.5em"><defs /><svg width="100%" x="0" y="0em"><defs /><text text-anchor="middle" x="50%" y="1em">michael</text></svg></svg><line stroke="black" x1="50%" x2="83.7321%" y1="1.2em" y2="1.5em" /><svg width="7.6555%" x="92.3445%" y="1.5em"><defs /><svg width="100%" x="0" y="0em"><defs /><text text-anchor="middle" x="50%" y="1em">its</text></svg></svg><line stroke="black" x1="50%" x2="96.1722%" y1="1.2em" y2="1.5em" /></svg><line stroke="black" x1="50%" x2="20.7341%" y1="1.2em" y2="1.5em" /><svg width="9.12698%" x="41.4683%" y="1.5em"><defs /><svg width="100%" x="0" y="0em"><defs /><text text-anchor="middle" x="50%" y="1em">purchased</text></svg></svg><line stroke="black" x1="50%" x2="46.0317%" y1="1.2em" y2="1.5em" /><svg width="6.15079%" x="50.5952%" y="1.5em"><defs /><svg width="100%" x="0" y="0em"><defs /><text text-anchor="middle" x="50%" y="1em">bought</text></svg></svg><line stroke="black" x1="50%" x2="53.6706%" y1="1.2em" y2="1.5em" /><svg width="5.15873%" x="56.746%" y="1.5em"><defs /><svg width="100%" x="0" y="0em"><defs /><text text-anchor="middle" x="50%" y="1em">would</text></svg></svg><line stroke="black" x1="50%" x2="59.3254%" y1="1.2em" y2="1.5em" /><svg width="8.13492%" x="61.9048%" y="1.5em"><defs /><svg width="100%" x="0" y="0em"><defs /><text text-anchor="middle" x="50%" y="1em">searched</text></svg></svg><line stroke="black" x1="50%" x2="65.9722%" y1="1.2em" y2="1.5em" /><svg width="5.15873%" x="70.0397%" y="1.5em"><defs /><svg width="100%" x="0" y="0em"><defs /><text text-anchor="middle" x="50%" y="1em">agree</text></svg></svg><line stroke="black" x1="50%" x2="72.619%" y1="1.2em" y2="1.5em" /><svg width="4.16667%" x="75.1984%" y="1.5em"><defs /><svg width="100%" x="0" y="0em"><defs /><text text-anchor="middle" x="50%" y="1em">sure</text></svg></svg><line stroke="black" x1="50%" x2="77.2817%" y1="1.2em" y2="1.5em" /><svg width="3.1746%" x="79.3651%" y="1.5em"><defs /><svg width="100%" x="0" y="0em"><defs /><text text-anchor="middle" x="50%" y="1em">had</text></svg></svg><line stroke="black" x1="50%" x2="80.9524%" y1="1.2em" y2="1.5em" /><svg width="8.13492%" x="82.5397%" y="1.5em"><defs /><svg width="100%" x="0" y="0em"><defs /><text text-anchor="middle" x="50%" y="1em">purchase</text></svg></svg><line stroke="black" x1="50%" x2="86.6071%" y1="1.2em" y2="1.5em" /><svg width="7.14286%" x="90.6746%" y="1.5em"><defs /><svg width="100%" x="0" y="0em"><defs /><text text-anchor="middle" x="50%" y="1em">ordered</text></svg></svg><line stroke="black" x1="50%" x2="94.246%" y1="1.2em" y2="1.5em" /><svg width="2.18254%" x="97.8175%" y="1.5em"><defs /><svg width="100%" x="0" y="0em"><defs /><text text-anchor="middle" x="50%" y="1em">'m</text></svg></svg><line stroke="black" x1="50%" x2="98.9087%" y1="1.2em" y2="1.5em" /></svg><line stroke="black" x1="50%" x2="35.5932%" y1="1.2em" y2="1.5em" /><svg width="5.79096%" x="71.1864%" y="1.5em"><defs /><svg width="100%" x="0" y="0em"><defs /><text text-anchor="middle" x="50%" y="1em">horrible</text></svg></svg><line stroke="black" x1="50%" x2="74.0819%" y1="1.2em" y2="1.5em" /><svg width="2.25989%" x="76.9774%" y="1.5em"><defs /><svg width="100%" x="0" y="0em"><defs /><text text-anchor="middle" x="50%" y="1em">the</text></svg></svg><line stroke="black" x1="50%" x2="78.1073%" y1="1.2em" y2="1.5em" /><svg width="2.9661%" x="79.2373%" y="1.5em"><defs /><svg width="100%" x="0" y="0em"><defs /><text text-anchor="middle" x="50%" y="1em">this</text></svg></svg><line stroke="black" x1="50%" x2="80.7203%" y1="1.2em" y2="1.5em" /><svg width="5.79096%" x="82.2034%" y="1.5em"><defs /><svg width="100%" x="0" y="0em"><defs /><text text-anchor="middle" x="50%" y="1em">absolute</text></svg></svg><line stroke="black" x1="50%" x2="85.0989%" y1="1.2em" y2="1.5em" /><svg width="1.55367%" x="87.9944%" y="1.5em"><defs /><svg width="100%" x="0" y="0em"><defs /><text text-anchor="middle" x="50%" y="1em">hi</text></svg></svg><line stroke="black" x1="50%" x2="88.7712%" y1="1.2em" y2="1.5em" /><svg width="2.25989%" x="89.548%" y="1.5em"><defs /><svg width="100%" x="0" y="0em"><defs /><text text-anchor="middle" x="50%" y="1em">not</text></svg></svg><line stroke="black" x1="50%" x2="90.678%" y1="1.2em" y2="1.5em" /><svg width="1.55367%" x="91.8079%" y="1.5em"><defs /><svg width="100%" x="0" y="0em"><defs /><text text-anchor="middle" x="50%" y="1em">it</text></svg></svg><line stroke="black" x1="50%" x2="92.5847%" y1="1.2em" y2="1.5em" /><svg width="2.9661%" x="93.3616%" y="1.5em"><defs /><svg width="100%" x="0" y="0em"><defs /><text text-anchor="middle" x="50%" y="1em">hard</text></svg></svg><line stroke="black" x1="50%" x2="94.8446%" y1="1.2em" y2="1.5em" /><svg width="3.67232%" x="96.3277%" y="1.5em"><defs /><svg width="100%" x="0" y="0em"><defs /><text text-anchor="middle" x="50%" y="1em">these</text></svg></svg><line stroke="black" x1="50%" x2="98.1638%" y1="1.2em" y2="1.5em" /></svg><line stroke="black" x1="50%" x2="42.446%" y1="1.2em" y2="1.5em" /><svg width="1.31894%" x="84.8921%" y="1.5em"><defs /><svg width="100%" x="0" y="0em"><defs /><text text-anchor="middle" x="50%" y="1em">or</text></svg></svg><line stroke="black" x1="50%" x2="85.5516%" y1="1.2em" y2="1.5em" /><svg width="1.19904%" x="86.211%" y="1.5em"><defs /><svg width="100%" x="0" y="0em"><defs /><text text-anchor="middle" x="50%" y="1em">.</text></svg></svg><line stroke="black" x1="50%" x2="86.8106%" y1="1.2em" y2="1.5em" /><svg width="1.91847%" x="87.4101%" y="1.5em"><defs /><svg width="100%" x="0" y="0em"><defs /><text text-anchor="middle" x="50%" y="1em">for</text></svg></svg><line stroke="black" x1="50%" x2="88.3693%" y1="1.2em" y2="1.5em" /><svg width="2.51799%" x="89.3285%" y="1.5em"><defs /><svg width="100%" x="0" y="0em"><defs /><text text-anchor="middle" x="50%" y="1em">ever</text></svg></svg><line stroke="black" x1="50%" x2="90.5875%" y1="1.2em" y2="1.5em" /><svg width="2.51799%" x="91.8465%" y="1.5em"><defs /><svg width="100%" x="0" y="0em"><defs /><text text-anchor="middle" x="50%" y="1em">&lt;/s&gt;</text></svg></svg><line stroke="black" x1="50%" x2="93.1055%" y1="1.2em" y2="1.5em" /><svg width="1.19904%" x="94.3645%" y="1.5em"><defs /><svg width="100%" x="0" y="0em"><defs /><text text-anchor="middle" x="50%" y="1em">!</text></svg></svg><line stroke="black" x1="50%" x2="94.964%" y1="1.2em" y2="1.5em" /><svg width="1.91847%" x="95.5635%" y="1.5em"><defs /><svg width="100%" x="0" y="0em"><defs /><text text-anchor="middle" x="50%" y="1em">and</text></svg></svg><line stroke="black" x1="50%" x2="96.5228%" y1="1.2em" y2="1.5em" /><svg width="1.19904%" x="97.482%" y="1.5em"><defs /><svg width="100%" x="0" y="0em"><defs /><text text-anchor="middle" x="50%" y="1em">,</text></svg></svg><line stroke="black" x1="50%" x2="98.0815%" y1="1.2em" y2="1.5em" /><svg width="1.31894%" x="98.6811%" y="1.5em"><defs /><svg width="100%" x="0" y="0em"><defs /><text text-anchor="middle" x="50%" y="1em">as</text></svg></svg><line stroke="black" x1="50%" x2="99.3405%" y1="1.2em" y2="1.5em" /></svg><line stroke="black" x1="50%" x2="41.4101%" y1="1.2em" y2="1.5em" /><svg width="2.58193%" x="82.8203%" y="1.5em"><defs /><svg width="100%" x="0" y="0em"><defs /><text text-anchor="middle" x="50%" y="1em">space</text></svg></svg><line stroke="black" x1="50%" x2="84.1112%" y1="1.2em" y2="1.5em" /><svg width="2.58193%" x="85.4022%" y="1.5em"><defs /><svg width="100%" x="0" y="0em"><defs /><text text-anchor="middle" x="50%" y="1em">paper</text></svg></svg><line stroke="black" x1="50%" x2="86.6931%" y1="1.2em" y2="1.5em" /><svg width="1.58888%" x="87.9841%" y="1.5em"><defs /><svg width="100%" x="0" y="0em"><defs /><text text-anchor="middle" x="50%" y="1em">the</text></svg></svg><line stroke="black" x1="50%" x2="88.7786%" y1="1.2em" y2="1.5em" /><svg width="2.0854%" x="89.573%" y="1.5em"><defs /><svg width="100%" x="0" y="0em"><defs /><text text-anchor="middle" x="50%" y="1em">time</text></svg></svg><line stroke="black" x1="50%" x2="90.6157%" y1="1.2em" y2="1.5em" /><svg width="2.0854%" x="91.6584%" y="1.5em"><defs /><svg width="100%" x="0" y="0em"><defs /><text text-anchor="middle" x="50%" y="1em">your</text></svg></svg><line stroke="black" x1="50%" x2="92.7011%" y1="1.2em" y2="1.5em" /><svg width="0.993049%" x="93.7438%" y="1.5em"><defs /><svg width="100%" x="0" y="0em"><defs /><text text-anchor="middle" x="50%" y="1em">$</text></svg></svg><line stroke="black" x1="50%" x2="94.2403%" y1="1.2em" y2="1.5em" /><svg width="1.09235%" x="94.7368%" y="1.5em"><defs /><svg width="100%" x="0" y="0em"><defs /><text text-anchor="middle" x="50%" y="1em">my</text></svg></svg><line stroke="black" x1="50%" x2="95.283%" y1="1.2em" y2="1.5em" /><svg width="2.0854%" x="95.8292%" y="1.5em"><defs /><svg width="100%" x="0" y="0em"><defs /><text text-anchor="middle" x="50%" y="1em">good</text></svg></svg><line stroke="black" x1="50%" x2="96.8719%" y1="1.2em" y2="1.5em" /><svg width="2.0854%" x="97.9146%" y="1.5em"><defs /><svg width="100%" x="0" y="0em"><defs /><text text-anchor="middle" x="50%" y="1em">both</text></svg></svg><line stroke="black" x1="50%" x2="98.9573%" y1="1.2em" y2="1.5em" /></svg><line stroke="black" x1="50%" x2="44.7158%" y1="1.2em" y2="1.5em" /><svg width="0.888099%" x="89.4316%" y="1.5em"><defs /><svg width="100%" x="0" y="0em"><defs /><text text-anchor="middle" x="50%" y="1em">(</text></svg></svg><line stroke="black" x1="50%" x2="89.8757%" y1="1.2em" y2="1.5em" /><svg width="0.888099%" x="90.3197%" y="1.5em"><defs /><svg width="100%" x="0" y="0em"><defs /><text text-anchor="middle" x="50%" y="1em">:</text></svg></svg><line stroke="black" x1="50%" x2="90.7638%" y1="1.2em" y2="1.5em" /><svg width="1.86501%" x="91.2078%" y="1.5em"><defs /><svg width="100%" x="0" y="0em"><defs /><text text-anchor="middle" x="50%" y="1em">time</text></svg></svg><line stroke="black" x1="50%" x2="92.1403%" y1="1.2em" y2="1.5em" /><svg width="0.888099%" x="93.0728%" y="1.5em"><defs /><svg width="100%" x="0" y="0em"><defs /><text text-anchor="middle" x="50%" y="1em">.</text></svg></svg><line stroke="black" x1="50%" x2="93.5169%" y1="1.2em" y2="1.5em" /><svg width="1.86501%" x="93.9609%" y="1.5em"><defs /><svg width="100%" x="0" y="0em"><defs /><text text-anchor="middle" x="50%" y="1em">that</text></svg></svg><line stroke="black" x1="50%" x2="94.8934%" y1="1.2em" y2="1.5em" /><svg width="1.42096%" x="95.8259%" y="1.5em"><defs /><svg width="100%" x="0" y="0em"><defs /><text text-anchor="middle" x="50%" y="1em">...</text></svg></svg><line stroke="black" x1="50%" x2="96.5364%" y1="1.2em" y2="1.5em" /><svg width="0.888099%" x="97.2469%" y="1.5em"><defs /><svg width="100%" x="0" y="0em"><defs /><text text-anchor="middle" x="50%" y="1em">!</text></svg></svg><line stroke="black" x1="50%" x2="97.6909%" y1="1.2em" y2="1.5em" /><svg width="0.976909%" x="98.135%" y="1.5em"><defs /><svg width="100%" x="0" y="0em"><defs /><text text-anchor="middle" x="50%" y="1em">on</text></svg></svg><line stroke="black" x1="50%" x2="98.6234%" y1="1.2em" y2="1.5em" /><svg width="0.888099%" x="99.1119%" y="1.5em"><defs /><svg width="100%" x="0" y="0em"><defs /><text text-anchor="middle" x="50%" y="1em">,</text></svg></svg><line stroke="black" x1="50%" x2="99.556%" y1="1.2em" y2="1.5em" /></svg><line stroke="black" x1="50%" x2="38.9619%" y1="1.2em" y2="1.5em" /><svg width="3.18339%" x="77.9239%" y="1.5em"><defs /><svg width="100%" x="0" y="0em"><defs /><text text-anchor="middle" x="50%" y="1em">wonderful</text></svg></svg><line stroke="black" x1="50%" x2="79.5156%" y1="1.2em" y2="1.5em" /><svg width="1.79931%" x="81.1073%" y="1.5em"><defs /><svg width="100%" x="0" y="0em"><defs /><text text-anchor="middle" x="50%" y="1em">great</text></svg></svg><line stroke="black" x1="50%" x2="82.0069%" y1="1.2em" y2="1.5em" /><svg width="1.45329%" x="82.9066%" y="1.5em"><defs /><svg width="100%" x="0" y="0em"><defs /><text text-anchor="middle" x="50%" y="1em">mess</text></svg></svg><line stroke="black" x1="50%" x2="83.6332%" y1="1.2em" y2="1.5em" /><svg width="4.91349%" x="84.3599%" y="1.5em"><defs /><svg width="100%" x="0" y="0em"><defs /><text text-anchor="middle" x="50%" y="1em">disappointment</text></svg></svg><line stroke="black" x1="50%" x2="86.8166%" y1="1.2em" y2="1.5em" /><svg width="1.10727%" x="89.2734%" y="1.5em"><defs /><svg width="100%" x="0" y="0em"><defs /><text text-anchor="middle" x="50%" y="1em">rip</text></svg></svg><line stroke="black" x1="50%" x2="89.827%" y1="1.2em" y2="1.5em" /><svg width="2.49135%" x="90.3806%" y="1.5em"><defs /><svg width="100%" x="0" y="0em"><defs /><text text-anchor="middle" x="50%" y="1em">tedious</text></svg></svg><line stroke="black" x1="50%" x2="91.6263%" y1="1.2em" y2="1.5em" /><svg width="2.14533%" x="92.872%" y="1.5em"><defs /><svg width="100%" x="0" y="0em"><defs /><text text-anchor="middle" x="50%" y="1em">bummer</text></svg></svg><line stroke="black" x1="50%" x2="93.9446%" y1="1.2em" y2="1.5em" /><svg width="3.18339%" x="95.0173%" y="1.5em"><defs /><svg width="100%" x="0" y="0em"><defs /><text text-anchor="middle" x="50%" y="1em">fantastic</text></svg></svg><line stroke="black" x1="50%" x2="96.609%" y1="1.2em" y2="1.5em" /><svg width="1.79931%" x="98.2007%" y="1.5em"><defs /><svg width="100%" x="0" y="0em"><defs /><text text-anchor="middle" x="50%" y="1em">bunch</text></svg></svg><line stroke="black" x1="50%" x2="99.1003%" y1="1.2em" y2="1.5em" /></svg><line stroke="black" x1="50%" x2="50%" y1="1.2em" y2="1.5em" /></svg><line stroke="black" x1="50%" x2="43.7084%" y1="1.2em" y2="1.5em" /><svg width="0.604961%" x="87.4168%" y="1.5em"><defs /><svg width="100%" x="0" y="0em"><defs /><text text-anchor="middle" x="50%" y="1em">)</text></svg></svg><line stroke="black" x1="50%" x2="87.7193%" y1="1.2em" y2="1.5em" /><svg width="0.967937%" x="88.0218%" y="1.5em"><defs /><svg width="100%" x="0" y="0em"><defs /><text text-anchor="middle" x="50%" y="1em">the</text></svg></svg><line stroke="black" x1="50%" x2="88.5057%" y1="1.2em" y2="1.5em" /><svg width="0.665457%" x="88.9897%" y="1.5em"><defs /><svg width="100%" x="0" y="0em"><defs /><text text-anchor="middle" x="50%" y="1em">it</text></svg></svg><line stroke="black" x1="50%" x2="89.3224%" y1="1.2em" y2="1.5em" /><svg width="0.665457%" x="89.6552%" y="1.5em"><defs /><svg width="100%" x="0" y="0em"><defs /><text text-anchor="middle" x="50%" y="1em">no</text></svg></svg><line stroke="black" x1="50%" x2="89.9879%" y1="1.2em" y2="1.5em" /><svg width="0.604961%" x="90.3206%" y="1.5em"><defs /><svg width="100%" x="0" y="0em"><defs /><text text-anchor="middle" x="50%" y="1em">i</text></svg></svg><line stroke="black" x1="50%" x2="90.6231%" y1="1.2em" y2="1.5em" /><svg width="0.967937%" x="90.9256%" y="1.5em"><defs /><svg width="100%" x="0" y="0em"><defs /><text text-anchor="middle" x="50%" y="1em">ugh</text></svg></svg><line stroke="black" x1="50%" x2="91.4096%" y1="1.2em" y2="1.5em" /><svg width="1.87538%" x="91.8935%" y="1.5em"><defs /><svg width="100%" x="0" y="0em"><defs /><text text-anchor="middle" x="50%" y="1em">failed</text></svg></svg><line stroke="black" x1="50%" x2="92.8312%" y1="1.2em" y2="1.5em" /><svg width="1.27042%" x="93.7689%" y="1.5em"><defs /><svg width="100%" x="0" y="0em"><defs /><text text-anchor="middle" x="50%" y="1em">very</text></svg></svg><line stroke="black" x1="50%" x2="94.4041%" y1="1.2em" y2="1.5em" /><svg width="2.17786%" x="95.0393%" y="1.5em"><defs /><svg width="100%" x="0" y="0em"><defs /><text text-anchor="middle" x="50%" y="1em">clearly</text></svg></svg><line stroke="black" x1="50%" x2="96.1283%" y1="1.2em" y2="1.5em" /><svg width="2.78282%" x="97.2172%" y="1.5em"><defs /><svg width="100%" x="0" y="0em"><defs /><text text-anchor="middle" x="50%" y="1em">sometimes</text></svg></svg><line stroke="black" x1="50%" x2="98.6086%" y1="1.2em" y2="1.5em" /></svg><line stroke="black" x1="50%" x2="46.4848%" y1="1.2em" y2="1.5em" /><svg width="2.02475%" x="92.9696%" y="1.5em"><defs /><svg width="100%" x="0" y="0em"><defs /><text text-anchor="middle" x="50%" y="1em">instead</text></svg></svg><line stroke="black" x1="50%" x2="93.982%" y1="1.2em" y2="1.5em" /><svg width="0.618673%" x="94.9944%" y="1.5em"><defs /><svg width="100%" x="0" y="0em"><defs /><text text-anchor="middle" x="50%" y="1em">or</text></svg></svg><line stroke="black" x1="50%" x2="95.3037%" y1="1.2em" y2="1.5em" /><svg width="1.1811%" x="95.613%" y="1.5em"><defs /><svg width="100%" x="0" y="0em"><defs /><text text-anchor="middle" x="50%" y="1em">more</text></svg></svg><line stroke="black" x1="50%" x2="96.2036%" y1="1.2em" y2="1.5em" /><svg width="2.02475%" x="96.7942%" y="1.5em"><defs /><svg width="100%" x="0" y="0em"><defs /><text text-anchor="middle" x="50%" y="1em">without</text></svg></svg><line stroke="black" x1="50%" x2="97.8065%" y1="1.2em" y2="1.5em" /><svg width="0.618673%" x="98.8189%" y="1.5em"><defs /><svg width="100%" x="0" y="0em"><defs /><text text-anchor="middle" x="50%" y="1em">is</text></svg></svg><line stroke="black" x1="50%" x2="99.1282%" y1="1.2em" y2="1.5em" /><svg width="0.56243%" x="99.4376%" y="1.5em"><defs /><svg width="100%" x="0" y="0em"><defs /><text text-anchor="middle" x="50%" y="1em">,</text></svg></svg><line stroke="black" x1="50%" x2="99.7188%" y1="1.2em" y2="1.5em" /></svg><line stroke="black" x1="50%" x2="41.8747%" y1="1.2em" y2="1.5em" /><svg width="0.989166%" x="83.7494%" y="1.5em"><defs /><svg width="100%" x="0" y="0em"><defs /><text text-anchor="middle" x="50%" y="1em">wild</text></svg></svg><line stroke="black" x1="50%" x2="84.244%" y1="1.2em" y2="1.5em" /><svg width="1.69571%" x="84.7386%" y="1.5em"><defs /><svg width="100%" x="0" y="0em"><defs /><text text-anchor="middle" x="50%" y="1em">natural</text></svg></svg><line stroke="black" x1="50%" x2="85.5864%" y1="1.2em" y2="1.5em" /><svg width="1.22468%" x="86.4343%" y="1.5em"><defs /><svg width="100%" x="0" y="0em"><defs /><text text-anchor="middle" x="50%" y="1em">earth</text></svg></svg><line stroke="black" x1="50%" x2="87.0466%" y1="1.2em" y2="1.5em" /><svg width="2.40226%" x="87.659%" y="1.5em"><defs /><svg width="100%" x="0" y="0em"><defs /><text text-anchor="middle" x="50%" y="1em">democratic</text></svg></svg><line stroke="black" x1="50%" x2="88.8601%" y1="1.2em" y2="1.5em" /><svg width="2.16675%" x="90.0612%" y="1.5em"><defs /><svg width="100%" x="0" y="0em"><defs /><text text-anchor="middle" x="50%" y="1em">trashpile</text></svg></svg><line stroke="black" x1="50%" x2="91.1446%" y1="1.2em" y2="1.5em" /><svg width="1.22468%" x="92.228%" y="1.5em"><defs /><svg width="100%" x="0" y="0em"><defs /><text text-anchor="middle" x="50%" y="1em">craft</text></svg></svg><line stroke="black" x1="50%" x2="92.8403%" y1="1.2em" y2="1.5em" /><svg width="1.22468%" x="93.4527%" y="1.5em"><defs /><svg width="100%" x="0" y="0em"><defs /><text text-anchor="middle" x="50%" y="1em">world</text></svg></svg><line stroke="black" x1="50%" x2="94.065%" y1="1.2em" y2="1.5em" /><svg width="1.4602%" x="94.6773%" y="1.5em"><defs /><svg width="100%" x="0" y="0em"><defs /><text text-anchor="middle" x="50%" y="1em">unique</text></svg></svg><line stroke="black" x1="50%" x2="95.4074%" y1="1.2em" y2="1.5em" /><svg width="1.69571%" x="96.1375%" y="1.5em"><defs /><svg width="100%" x="0" y="0em"><defs /><text text-anchor="middle" x="50%" y="1em">streets</text></svg></svg><line stroke="black" x1="50%" x2="96.9854%" y1="1.2em" y2="1.5em" /><svg width="2.16675%" x="97.8333%" y="1.5em"><defs /><svg width="100%" x="0" y="0em"><defs /><text text-anchor="middle" x="50%" y="1em">caribbean</text></svg></svg><line stroke="black" x1="50%" x2="98.9166%" y1="1.2em" y2="1.5em" /></svg><line stroke="black" x1="50%" x2="50%" y1="1.2em" y2="1.5em" /></svg><line stroke="black" x1="50%" x2="49.5103%" y1="1.2em" y2="1.5em" /><svg width="0.979478%" x="99.0205%" y="1.5em"><defs /><svg width="100%" x="0" y="0em"><defs /><text text-anchor="middle" x="50%" y="1em">were</text></svg></svg><line stroke="black" x1="50%" x2="99.5103%" y1="1.2em" y2="1.5em" /></svg><line stroke="black" x1="50%" x2="50%" y1="1.2em" y2="1.5em" /></svg><line stroke="black" x1="50%" x2="48.1149%" y1="1.2em" y2="1.5em" /><svg width="1.39138%" x="96.2298%" y="1.5em"><defs /><svg width="100%" x="0" y="0em"><defs /><text text-anchor="middle" x="50%" y="1em">yellow</text></svg></svg><line stroke="black" x1="50%" x2="96.9255%" y1="1.2em" y2="1.5em" /><svg width="0.942549%" x="97.6212%" y="1.5em"><defs /><svg width="100%" x="0" y="0em"><defs /><text text-anchor="middle" x="50%" y="1em">even</text></svg></svg><line stroke="black" x1="50%" x2="98.0925%" y1="1.2em" y2="1.5em" /><svg width="0.942549%" x="98.5637%" y="1.5em"><defs /><svg width="100%" x="0" y="0em"><defs /><text text-anchor="middle" x="50%" y="1em">song</text></svg></svg><line stroke="black" x1="50%" x2="99.035%" y1="1.2em" y2="1.5em" /><svg width="0.493716%" x="99.5063%" y="1.5em"><defs /><svg width="100%" x="0" y="0em"><defs /><text text-anchor="middle" x="50%" y="1em">of</text></svg></svg><line stroke="black" x1="50%" x2="99.7531%" y1="1.2em" y2="1.5em" /></svg><line stroke="black" x1="50%" x2="45.6183%" y1="1.2em" y2="1.5em" /><svg width="1.0647%" x="91.2367%" y="1.5em"><defs /><svg width="100%" x="0" y="0em"><defs /><text text-anchor="middle" x="50%" y="1em">great</text></svg></svg><line stroke="black" x1="50%" x2="91.769%" y1="1.2em" y2="1.5em" /><svg width="0.859951%" x="92.3014%" y="1.5em"><defs /><svg width="100%" x="0" y="0em"><defs /><text text-anchor="middle" x="50%" y="1em">more</text></svg></svg><line stroke="black" x1="50%" x2="92.7314%" y1="1.2em" y2="1.5em" /><svg width="2.08845%" x="93.1613%" y="1.5em"><defs /><svg width="100%" x="0" y="0em"><defs /><text text-anchor="middle" x="50%" y="1em">everything</text></svg></svg><line stroke="black" x1="50%" x2="94.2056%" y1="1.2em" y2="1.5em" /><svg width="0.859951%" x="95.2498%" y="1.5em"><defs /><svg width="100%" x="0" y="0em"><defs /><text text-anchor="middle" x="50%" y="1em">sean</text></svg></svg><line stroke="black" x1="50%" x2="95.6798%" y1="1.2em" y2="1.5em" /><svg width="0.45045%" x="96.1097%" y="1.5em"><defs /><svg width="100%" x="0" y="0em"><defs /><text text-anchor="middle" x="50%" y="1em">so</text></svg></svg><line stroke="black" x1="50%" x2="96.335%" y1="1.2em" y2="1.5em" /><svg width="0.4095%" x="96.5602%" y="1.5em"><defs /><svg width="100%" x="0" y="0em"><defs /><text text-anchor="middle" x="50%" y="1em">a</text></svg></svg><line stroke="black" x1="50%" x2="96.7649%" y1="1.2em" y2="1.5em" /><svg width="0.859951%" x="96.9697%" y="1.5em"><defs /><svg width="100%" x="0" y="0em"><defs /><text text-anchor="middle" x="50%" y="1em">some</text></svg></svg><line stroke="black" x1="50%" x2="97.3997%" y1="1.2em" y2="1.5em" /><svg width="0.859951%" x="97.8296%" y="1.5em"><defs /><svg width="100%" x="0" y="0em"><defs /><text text-anchor="middle" x="50%" y="1em">both</text></svg></svg><line stroke="black" x1="50%" x2="98.2596%" y1="1.2em" y2="1.5em" /><svg width="0.859951%" x="98.6896%" y="1.5em"><defs /><svg width="100%" x="0" y="0em"><defs /><text text-anchor="middle" x="50%" y="1em">bugs</text></svg></svg><line stroke="black" x1="50%" x2="99.1196%" y1="1.2em" y2="1.5em" /><svg width="0.45045%" x="99.5495%" y="1.5em"><defs /><svg width="100%" x="0" y="0em"><defs /><text text-anchor="middle" x="50%" y="1em">to</text></svg></svg><line stroke="black" x1="50%" x2="99.7748%" y1="1.2em" y2="1.5em" /></svg><line stroke="black" x1="50%" x2="45.4579%" y1="1.2em" y2="1.5em" /><svg width="0.595681%" x="90.9159%" y="1.5em"><defs /><svg width="100%" x="0" y="0em"><defs /><text text-anchor="middle" x="50%" y="1em">far</text></svg></svg><line stroke="black" x1="50%" x2="91.2137%" y1="1.2em" y2="1.5em" /><svg width="0.967982%" x="91.5115%" y="1.5em"><defs /><svg width="100%" x="0" y="0em"><defs /><text text-anchor="middle" x="50%" y="1em">about</text></svg></svg><line stroke="black" x1="50%" x2="91.9955%" y1="1.2em" y2="1.5em" /><svg width="0.781832%" x="92.4795%" y="1.5em"><defs /><svg width="100%" x="0" y="0em"><defs /><text text-anchor="middle" x="50%" y="1em">more</text></svg></svg><line stroke="black" x1="50%" x2="92.8704%" y1="1.2em" y2="1.5em" /><svg width="0.595681%" x="93.2614%" y="1.5em"><defs /><svg width="100%" x="0" y="0em"><defs /><text text-anchor="middle" x="50%" y="1em">not</text></svg></svg><line stroke="black" x1="50%" x2="93.5592%" y1="1.2em" y2="1.5em" /><svg width="1.52643%" x="93.857%" y="1.5em"><defs /><svg width="100%" x="0" y="0em"><defs /><text text-anchor="middle" x="50%" y="1em">actually</text></svg></svg><line stroke="black" x1="50%" x2="94.6203%" y1="1.2em" y2="1.5em" /><svg width="0.409531%" x="95.3835%" y="1.5em"><defs /><svg width="100%" x="0" y="0em"><defs /><text text-anchor="middle" x="50%" y="1em">00</text></svg></svg><line stroke="black" x1="50%" x2="95.5882%" y1="1.2em" y2="1.5em" /><svg width="1.89873%" x="95.793%" y="1.5em"><defs /><svg width="100%" x="0" y="0em"><defs /><text text-anchor="middle" x="50%" y="1em">definitely</text></svg></svg><line stroke="black" x1="50%" x2="96.7424%" y1="1.2em" y2="1.5em" /><svg width="0.372301%" x="97.6917%" y="1.5em"><defs /><svg width="100%" x="0" y="0em"><defs /><text text-anchor="middle" x="50%" y="1em">a</text></svg></svg><line stroke="black" x1="50%" x2="97.8779%" y1="1.2em" y2="1.5em" /><svg width="0.781832%" x="98.064%" y="1.5em"><defs /><svg width="100%" x="0" y="0em"><defs /><text text-anchor="middle" x="50%" y="1em">very</text></svg></svg><line stroke="black" x1="50%" x2="98.455%" y1="1.2em" y2="1.5em" /><svg width="1.15413%" x="98.8459%" y="1.5em"><defs /><svg width="100%" x="0" y="0em"><defs /><text text-anchor="middle" x="50%" y="1em">tricky</text></svg></svg><line stroke="black" x1="50%" x2="99.4229%" y1="1.2em" y2="1.5em" /></svg><line stroke="black" x1="50%" x2="46.713%" y1="1.2em" y2="1.5em" /><svg width="1.07826%" x="93.4261%" y="1.5em"><defs /><svg width="100%" x="0" y="0em"><defs /><text text-anchor="middle" x="50%" y="1em">worked</text></svg></svg><line stroke="black" x1="50%" x2="93.9652%" y1="1.2em" y2="1.5em" /><svg width="0.556522%" x="94.5043%" y="1.5em"><defs /><svg width="100%" x="0" y="0em"><defs /><text text-anchor="middle" x="50%" y="1em">has</text></svg></svg><line stroke="black" x1="50%" x2="94.7826%" y1="1.2em" y2="1.5em" /><svg width="1.07826%" x="95.0609%" y="1.5em"><defs /><svg width="100%" x="0" y="0em"><defs /><text text-anchor="middle" x="50%" y="1em">opened</text></svg></svg><line stroke="black" x1="50%" x2="95.6%" y1="1.2em" y2="1.5em" /><svg width="0.382609%" x="96.1391%" y="1.5em"><defs /><svg width="100%" x="0" y="0em"><defs /><text text-anchor="middle" x="50%" y="1em">is</text></svg></svg><line stroke="black" x1="50%" x2="96.3304%" y1="1.2em" y2="1.5em" /><svg width="0.730435%" x="96.5217%" y="1.5em"><defs /><svg width="100%" x="0" y="0em"><defs /><text text-anchor="middle" x="50%" y="1em">gets</text></svg></svg><line stroke="black" x1="50%" x2="96.887%" y1="1.2em" y2="1.5em" /><svg width="0.730435%" x="97.2522%" y="1.5em"><defs /><svg width="100%" x="0" y="0em"><defs /><text text-anchor="middle" x="50%" y="1em">also</text></svg></svg><line stroke="black" x1="50%" x2="97.6174%" y1="1.2em" y2="1.5em" /><svg width="0.730435%" x="97.9826%" y="1.5em"><defs /><svg width="100%" x="0" y="0em"><defs /><text text-anchor="middle" x="50%" y="1em">made</text></svg></svg><line stroke="black" x1="50%" x2="98.3478%" y1="1.2em" y2="1.5em" /><svg width="0.556522%" x="98.713%" y="1.5em"><defs /><svg width="100%" x="0" y="0em"><defs /><text text-anchor="middle" x="50%" y="1em">was</text></svg></svg><line stroke="black" x1="50%" x2="98.9913%" y1="1.2em" y2="1.5em" /><svg width="0.730435%" x="99.2696%" y="1.5em"><defs /><svg width="100%" x="0" y="0em"><defs /><text text-anchor="middle" x="50%" y="1em">just</text></svg></svg><line stroke="black" x1="50%" x2="99.6348%" y1="1.2em" y2="1.5em" /></svg><line stroke="black" x1="50%" x2="48.7619%" y1="1.2em" y2="1.5em" /><svg width="0.881954%" x="97.5237%" y="1.5em"><defs /><svg width="100%" x="0" y="0em"><defs /><text text-anchor="middle" x="50%" y="1em">there</text></svg></svg><line stroke="black" x1="50%" x2="97.9647%" y1="1.2em" y2="1.5em" /><svg width="0.881954%" x="98.4057%" y="1.5em"><defs /><svg width="100%" x="0" y="0em"><defs /><text text-anchor="middle" x="50%" y="1em">heart</text></svg></svg><line stroke="black" x1="50%" x2="98.8467%" y1="1.2em" y2="1.5em" /><svg width="0.712347%" x="99.2877%" y="1.5em"><defs /><svg width="100%" x="0" y="0em"><defs /><text text-anchor="middle" x="50%" y="1em">&lt;/s&gt;</text></svg></svg><line stroke="black" x1="50%" x2="99.6438%" y1="1.2em" y2="1.5em" /></svg><line stroke="black" x1="50%" x2="50%" y1="1.2em" y2="1.5em" /></svg><line stroke="black" x1="50%" x2="49.117%" y1="1.2em" y2="1.5em" /><svg width="0.866378%" x="98.2339%" y="1.5em"><defs /><svg width="100%" x="0" y="0em"><defs /><text text-anchor="middle" x="50%" y="1em">after</text></svg></svg><line stroke="black" x1="50%" x2="98.6671%" y1="1.2em" y2="1.5em" /><svg width="0.533156%" x="99.1003%" y="1.5em"><defs /><svg width="100%" x="0" y="0em"><defs /><text text-anchor="middle" x="50%" y="1em">for</text></svg></svg><line stroke="black" x1="50%" x2="99.3669%" y1="1.2em" y2="1.5em" /><svg width="0.366544%" x="99.6335%" y="1.5em"><defs /><svg width="100%" x="0" y="0em"><defs /><text text-anchor="middle" x="50%" y="1em">as</text></svg></svg><line stroke="black" x1="50%" x2="99.8167%" y1="1.2em" y2="1.5em" /></svg><line stroke="black" x1="50%" x2="46.9053%" y1="1.2em" y2="1.5em" /><svg width="0.500156%" x="93.8106%" y="1.5em"><defs /><svg width="100%" x="0" y="0em"><defs /><text text-anchor="middle" x="50%" y="1em">the</text></svg></svg><line stroke="black" x1="50%" x2="94.0606%" y1="1.2em" y2="1.5em" /><svg width="0.312598%" x="94.3107%" y="1.5em"><defs /><svg width="100%" x="0" y="0em"><defs /><text text-anchor="middle" x="50%" y="1em">:</text></svg></svg><line stroke="black" x1="50%" x2="94.467%" y1="1.2em" y2="1.5em" /><svg width="0.343857%" x="94.6233%" y="1.5em"><defs /><svg width="100%" x="0" y="0em"><defs /><text text-anchor="middle" x="50%" y="1em">it</text></svg></svg><line stroke="black" x1="50%" x2="94.7952%" y1="1.2em" y2="1.5em" /><svg width="1.12535%" x="94.9672%" y="1.5em"><defs /><svg width="100%" x="0" y="0em"><defs /><text text-anchor="middle" x="50%" y="1em">several</text></svg></svg><line stroke="black" x1="50%" x2="95.5299%" y1="1.2em" y2="1.5em" /><svg width="0.656455%" x="96.0925%" y="1.5em"><defs /><svg width="100%" x="0" y="0em"><defs /><text text-anchor="middle" x="50%" y="1em">well</text></svg></svg><line stroke="black" x1="50%" x2="96.4208%" y1="1.2em" y2="1.5em" /><svg width="0.656455%" x="96.749%" y="1.5em"><defs /><svg width="100%" x="0" y="0em"><defs /><text text-anchor="middle" x="50%" y="1em">*you</text></svg></svg><line stroke="black" x1="50%" x2="97.0772%" y1="1.2em" y2="1.5em" /><svg width="0.312598%" x="97.4054%" y="1.5em"><defs /><svg width="100%" x="0" y="0em"><defs /><text text-anchor="middle" x="50%" y="1em">i</text></svg></svg><line stroke="black" x1="50%" x2="97.5617%" y1="1.2em" y2="1.5em" /><svg width="0.343857%" x="97.718%" y="1.5em"><defs /><svg width="100%" x="0" y="0em"><defs /><text text-anchor="middle" x="50%" y="1em">my</text></svg></svg><line stroke="black" x1="50%" x2="97.89%" y1="1.2em" y2="1.5em" /><svg width="1.28165%" x="98.0619%" y="1.5em"><defs /><svg width="100%" x="0" y="0em"><defs /><text text-anchor="middle" x="50%" y="1em">bradbury</text></svg></svg><line stroke="black" x1="50%" x2="98.7027%" y1="1.2em" y2="1.5em" /><svg width="0.656455%" x="99.3435%" y="1.5em"><defs /><svg width="100%" x="0" y="0em"><defs /><text text-anchor="middle" x="50%" y="1em">&lt;/s&gt;</text></svg></svg><line stroke="black" x1="50%" x2="99.6718%" y1="1.2em" y2="1.5em" /></svg><line stroke="black" x1="50%" x2="50%" y1="1.2em" y2="1.5em" /></svg><line stroke="black" x1="50%" x2="50%" y1="1.2em" y2="1.5em" /></svg>